 <svg width="26" height="27" viewBox="0 0 26 27" fill="none" xmlns="http://www.w3.org/2000/svg">
    <path d="M18.4167 3.75C18.7013 3.46547 19.0391 3.23977 19.4108 3.08578C19.7826 2.93179 20.181 2.85254 20.5834 2.85254C20.9858 2.85254 21.3842 2.93179 21.756 3.08578C22.1278 3.23977 22.4656 3.46547 22.7501 3.75C23.0346 4.03453 23.2603 4.37232 23.4143 4.74408C23.5683 5.11583 23.6475 5.51428 23.6475 5.91667C23.6475 6.31906 23.5683 6.7175 23.4143 7.08926C23.2603 7.46102 23.0346 7.7988 22.7501 8.08334L8.12508 22.7083L2.16675 24.3333L3.79175 18.375L18.4167 3.75Z" stroke="black" stroke-opacity="0.8" stroke-width="2" stroke-linecap="round" stroke-linejoin="round"/>
</svg>